<svg xmlns="http://www.w3.org/2000/svg" xmlns:xlink="http://www.w3.org/1999/xlink" id="Layer_1" x="0px" y="0px" viewBox="0 0 103.8 161.4" style="enable-background:new 0 0 103.8 161.4;" xml:space="preserve"><style type="text/css">	.st0{fill:#008DE4;}</style><path id="XMLID_490_" class="st0" d="M51.9,7.3c24.4,0,44.3,22.2,44.3,49.4c0,1.7-0.1,3.5-0.2,5.2l0,0.2c-0.3,10.4-5.2,39.6-44,88.6 c-38.8-49-43.7-78.2-44-88.6l0-0.2c-0.2-1.7-0.2-3.5-0.2-5.2C7.6,29.4,27.5,7.3,51.9,7.3 M51.9,77.4c15.3,0,27.6-12.4,27.6-27.6 c0-15.3-12.4-27.6-27.6-27.6c-15.3,0-27.6,12.4-27.6,27.6C24.3,65,36.6,77.4,51.9,77.4 M51.9,1.4C24.3,1.4,1.8,26.2,1.8,56.7 c0,1.8,0.1,3.7,0.3,5.6l0,0.1c0.2,6.2,1.7,16.7,8,31.8c7.6,18.3,20.1,38.5,37.2,60.1l4.6,5.8l4.6-5.8c17.1-21.6,29.6-41.9,37.2-60.1 c6.3-15.1,7.8-25.6,8-31.8l0-0.1c0.2-1.8,0.3-3.7,0.3-5.6C102,26.2,79.5,1.4,51.9,1.4L51.9,1.4z M51.9,71.6 c-12,0-21.8-9.8-21.8-21.8c0-12,9.8-21.8,21.8-21.8c12,0,21.8,9.8,21.8,21.8C73.7,61.8,63.9,71.6,51.9,71.6L51.9,71.6z"></path></svg>